<?xml version="1.0" encoding="UTF-8"?>
<!DOCTYPE svg PUBLIC "-//W3C//DTD SVG 1.1//EN" "http://www.w3.org/Graphics/SVG/1.1/DTD/svg11.dtd">
<svg xmlns="http://www.w3.org/2000/svg" version="1.1" width="840px" height="779px" style="shape-rendering:geometricPrecision; text-rendering:geometricPrecision; image-rendering:optimizeQuality; fill-rule:evenodd; clip-rule:evenodd" xmlns:xlink="http://www.w3.org/1999/xlink">
<g><path style="opacity:0.994" fill="#000000" d="M 48.5,-0.5 C 275.833,-0.5 503.167,-0.5 730.5,-0.5C 757.635,5.46879 773.801,22.1355 779,49.5C 779.667,275.833 779.667,502.167 779,728.5C 773.891,755.441 758.057,772.108 731.5,778.5C 503.5,778.5 275.5,778.5 47.5,778.5C 20.5044,771.838 4.50441,754.838 -0.5,727.5C -0.5,501.833 -0.5,276.167 -0.5,50.5C 4.61681,22.7166 20.9501,5.71664 48.5,-0.5 Z M 165.5,107.5 C 192.202,106.104 213.369,116.104 229,137.5C 247.282,171.421 242.115,201.254 213.5,227C 183.589,246.229 154.923,244.562 127.5,222C 106.892,199.959 102.059,174.792 113,146.5C 123.841,124.487 141.341,111.487 165.5,107.5 Z M 520.5,282.5 C 550.167,281.332 578.167,287.499 604.5,301C 625.573,314.416 640.407,332.916 649,356.5C 656.412,378.228 660.745,400.561 662,423.5C 663.432,503.156 663.932,582.823 663.5,662.5C 625.167,662.5 586.833,662.5 548.5,662.5C 548.667,592.166 548.5,521.833 548,451.5C 545.889,397.54 518.389,375.707 465.5,386C 442.347,393.158 428.18,408.658 423,432.5C 420.92,441.726 419.587,451.06 419,460.5C 418.5,527.833 418.333,595.166 418.5,662.5C 380.5,662.5 342.5,662.5 304.5,662.5C 304.5,539.167 304.5,415.833 304.5,292.5C 340.833,292.5 377.167,292.5 413.5,292.5C 413.5,309.167 413.5,325.833 413.5,342.5C 415.39,342.703 416.89,342.037 418,340.5C 434.231,313.953 457.397,296.453 487.5,288C 498.483,285.172 509.483,283.339 520.5,282.5 Z M 116.5,292.5 C 154.5,292.5 192.5,292.5 230.5,292.5C 230.5,415.833 230.5,539.167 230.5,662.5C 192.5,662.5 154.5,662.5 116.5,662.5C 116.5,539.167 116.5,415.833 116.5,292.5 Z"/></g>
<g><path style="opacity:0.777" fill="#000000" d="M 839.5,641.5 C 839.5,645.167 839.5,648.833 839.5,652.5C 833.355,667.06 822.689,671.56 807.5,666C 798.853,660.072 795.686,651.905 798,641.5C 802.66,629.25 811.493,624.417 824.5,627C 832.016,629.351 837.016,634.184 839.5,641.5 Z M 816.5,629.5 C 832.715,631.927 838.215,640.927 833,656.5C 825.909,665.299 817.409,666.799 807.5,661C 799.267,651.34 799.6,642.007 808.5,633C 811.158,631.522 813.825,630.355 816.5,629.5 Z M 814.5,639.5 C 817.187,639.336 819.854,639.503 822.5,640C 823.833,641.667 823.833,643.333 822.5,645C 819.854,645.497 817.187,645.664 814.5,645.5C 814.5,643.5 814.5,641.5 814.5,639.5 Z"/></g>
<g><path style="opacity:0.756" fill="#000000" d="M 810.5,635.5 C 814.514,635.334 818.514,635.501 822.5,636C 824.329,636.273 825.829,637.107 827,638.5C 827.667,641.167 827.667,643.833 827,646.5C 825.829,647.893 824.329,648.727 822.5,649C 824.5,652 826.5,655 828.5,658C 826.833,658.667 825.167,658.667 823.5,658C 821.709,655.586 820.043,653.086 818.5,650.5C 817.311,649.571 815.978,649.238 814.5,649.5C 814.5,652.5 814.5,655.5 814.5,658.5C 813.167,658.5 811.833,658.5 810.5,658.5C 810.5,650.833 810.5,643.167 810.5,635.5 Z M 814.5,639.5 C 814.5,641.5 814.5,643.5 814.5,645.5C 817.187,645.664 819.854,645.497 822.5,645C 823.833,643.333 823.833,641.667 822.5,640C 819.854,639.503 817.187,639.336 814.5,639.5 Z"/></g>
</svg>
