<svg xmlns="http://www.w3.org/2000/svg" viewBox="0 0 48 48"><defs><style>.cls-1{fill:#dad7e5;}.cls-2{fill:#edebf2;}.cls-3{fill:#6fabe6;}.cls-4{fill:#82bcf4;}.cls-5{fill:#7c7d7d;}.cls-6{fill:#919191;}.cls-7{fill:#c6c3d8;}.cls-8{fill:#f26674;}.cls-9{fill:#ffde76;}.cls-10{fill:#b5e08c;}.cls-11{fill:#9fdbf3;}.cls-12{fill:#b2e5fb;}</style></defs><title>search engine website</title><g id="search_engine_website" data-name="search engine website"><path class="cls-1" d="M47,6V37a2,2,0,0,1-2,2H3a2,2,0,0,1-2-2V9H16l2-3Z"/><path class="cls-2" d="M47,6V37H7a3,3,0,0,1-3-3V9H16l2-3Z"/><path class="cls-3" d="M47,3V6H18c-.85,1.26-.41.6-2,3H1V3A2,2,0,0,1,3,1H45A2,2,0,0,1,47,3Z"/><path class="cls-4" d="M47,3V6H18l-.67,1H7A3,3,0,0,1,4,4V1H45A2,2,0,0,1,47,3Z"/><rect class="cls-5" x="6" y="14" width="10" height="10"/><path class="cls-6" d="M16,14c0,8.55-.1,8,0,8a8,8,0,0,1-8-8Z"/><path class="cls-7" d="M42,17H21a1,1,0,0,1,0-2H42A1,1,0,0,1,42,17Z"/><path class="cls-7" d="M42,22H21a1,1,0,0,1,0-2H42A1,1,0,0,1,42,22Z"/><path class="cls-7" d="M19,30H6a1,1,0,0,1,0-2H19A1,1,0,0,1,19,30Z"/><path class="cls-7" d="M16,35H6a1,1,0,0,1,0-2H16A1,1,0,0,1,16,35Z"/><path class="cls-5" d="M45,45a2,2,0,0,1-3.41,1.41l-4.8-4.8,2.82-2.82C44.82,44,45,43.94,45,45Z"/><path class="cls-6" d="M44.72,44a2,2,0,0,1-3.13.41l-3.8-3.8,1.82-1.82C44.82,44,44.56,43.69,44.72,44Z"/><path class="cls-8" d="M5,6A1,1,0,0,1,4,4.8a1,1,0,0,1,1.69-.51A1,1,0,0,1,5,6Z"/><path class="cls-9" d="M9,6A1,1,0,0,1,8,5,1,1,0,1,1,9,6Z"/><path class="cls-10" d="M13,6a1,1,0,1,1,.71-1.71A1,1,0,0,1,13,6Z"/><path class="cls-11" d="M41,34a9,9,0,1,1-14.28-7.28A9,9,0,0,1,41,34Z"/><path class="cls-12" d="M41,34a8.94,8.94,0,0,1-1.72,5.28A9,9,0,0,1,26.72,26.72,9,9,0,0,1,41,34Z"/></g></svg>